
<svg xmlns="http://www.w3.org/2000/svg" width="100" height="100" viewBox="0 0 100 100" fill="none">
  <path d="M50 90C72.0914 90 90 72.0914 90 50C90 27.9086 72.0914 10 50 10C27.9086 10 10 27.9086 10 50C10 72.0914 27.9086 90 50 90Z" stroke="#51962E" stroke-opacity="0.2" stroke-width="2"/>
  <path d="M50 70C61.0457 70 70 61.0457 70 50C70 38.9543 61.0457 30 50 30C38.9543 30 30 38.9543 30 50C30 61.0457 38.9543 70 50 70Z" stroke="#51962E" stroke-opacity="0.15" stroke-width="2"/>
  <path d="M70 30C70 30 70 10 50 10C30 10 30 30 30 30" stroke="#51962E" stroke-opacity="0.15" stroke-width="2"/>
  <path d="M70 30C70 30 90 30 90 50C90 70 70 70 70 70" stroke="#51962E" stroke-opacity="0.15" stroke-width="2"/>
  <path d="M30 70C30 70 30 90 50 90C70 90 70 70 70 70" stroke="#51962E" stroke-opacity="0.15" stroke-width="2"/>
  <path d="M30 70C30 70 10 70 10 50C10 30 30 30 30 30" stroke="#51962E" stroke-opacity="0.15" stroke-width="2"/>
</svg>
